<svg version="1.0" xml:space="preserve" viewBox="0 0 79.992 114.063" height="142.308" width="100" xmlns="http://www.w3.org/2000/svg"><rect rx="3.055" ry="3.064" y=".129" x=".049" height="113.804" width="79.894" style="fill:#fff;fill-opacity:1;stroke:gray;stroke-width:.258923;stroke-linecap:butt;stroke-linejoin:miter;stroke-miterlimit:4;stroke-dasharray:none;stroke-opacity:1"/><path style="fill:#fff;fill-rule:nonzero;stroke:#313390;stroke-width:.549765;stroke-miterlimit:4;stroke-dasharray:none;stroke-opacity:1" d="M75.856 106.85c0 1.646-1.329 2.996-2.958 2.996H7.09c-1.625 0-2.954-1.35-2.954-2.997V7.214c0-1.648 1.329-2.996 2.954-2.996h65.808c1.63 0 2.958 1.348 2.958 2.996z"/><path style="fill:#313390;fill-opacity:1;fill-rule:evenodd;stroke:#313390;stroke-width:.0114565;stroke-miterlimit:10;stroke-opacity:1" d="M15.926 18.333h44.539c.35 0 3.714-.162 3.714.129V94.734c0 .112.075.621-.061.621H16.219c-.63 0-.293-1.772-.293-2.279V18.333"/><path style="fill:#fff;fill-rule:evenodd;stroke:#313390;stroke-width:.0114565;stroke-miterlimit:10;stroke-opacity:1" d="M30.574 46.02c1.925 0 18.957-.136 18.957.136v21.928c0 .22-18.957.026-18.957.082V46.02"/><path style="fill:#fff;fill-rule:evenodd;stroke:#fff;stroke-width:.0114565;stroke-miterlimit:10;stroke-opacity:1" d="m40.053 44.007-5.601 6.545-3.777 4.412c-.292.342-1.824 1.657-1.824 2.132 0 .436 1.41 1.647 1.678 1.96l3.923 4.584 5.6 6.545 5.602-6.545 3.776-4.413c.292-.341 1.824-1.657 1.824-2.131 0-.436-1.409-1.647-1.677-1.96l-3.923-4.584-5.601-6.545"/><path style="fill:#313390;fill-opacity:1;fill-rule:evenodd;stroke:#313390;stroke-width:.0114565;stroke-miterlimit:10;stroke-opacity:1" d="m31.51 46.99 3.861-.047c2.145-.026 4.72-.053 6.436-.063 2.017-.01 5.905.037 5.905.037.992 0 .957.196.957 1.205v18.283c0 .916-.524.72-1.39.722l-11.47.037H32.15c-.679 0-.714-.445-.714-1.094V48.02"/><path style="fill:#313390;fill-opacity:1;fill-rule:evenodd;stroke:#313390;stroke-width:.0114565;stroke-miterlimit:10;stroke-opacity:1" d="M40.053 45.014 34.98 50.94l-3.616 4.225c-.264.31-1.652 1.501-1.652 1.93 0 .393 1.265 1.48 1.506 1.761l3.566 4.166 5.268 6.156 5.071-5.926 3.616-4.225c.265-.31 1.653-1.501 1.653-1.931 0-.392-1.266-1.48-1.507-1.76a31181.79 31181.79 0 0 1-8.833-10.322"/><path style="fill:#fff;fill-rule:evenodd;stroke:#313390;stroke-width:.0114565;stroke-miterlimit:10;stroke-opacity:1" d="M33.16 49.041h11.226c.467 0 2.56-.32 2.56.258v5.124c0 .752.009 10.728-.009 10.728H35.485c-.456 0-2.326.315-2.326-.259V49.041"/><path style="fill:#fff;fill-rule:evenodd;stroke:#fff;stroke-width:.0114565;stroke-miterlimit:10;stroke-opacity:1" d="m40.053 47.028-4.308 5.034-2.888 3.374c-.228.266-1.42 1.29-1.42 1.66 0 .331 1.07 1.25 1.273 1.488l3.035 3.546 4.308 5.034 4.308-5.034 2.887-3.374c.228-.266 1.421-1.29 1.421-1.66 0-.331-1.07-1.25-1.273-1.488l-3.035-3.546-4.308-5.034"/><path style="fill:#313390;fill-opacity:1;fill-rule:evenodd;stroke:#313390;stroke-width:.0114565;stroke-miterlimit:10;stroke-opacity:1" d="M34.021 50.048H45.05c1.327 0 1.035.12 1.035 1.466v12.337c0 .65-2.256.293-2.782.293H36.31c-.814 0-2.289.48-2.289-.51V50.047"/><path style="fill:#313390;fill-opacity:1;fill-rule:evenodd;stroke:#313390;stroke-width:.0114565;stroke-miterlimit:10;stroke-opacity:1" d="m40.053 48.034-3.78 4.416-2.726 3.187c-.2.233-1.25 1.134-1.25 1.459 0 .286.928 1.083 1.104 1.288l2.676 3.127 3.976 4.646 3.779-4.415 2.727-3.187c.2-.233 1.249-1.135 1.249-1.46 0-.285-.927-1.082-1.103-1.288L44.03 52.68l-3.976-4.646"/><path style="fill:#fff;fill-rule:evenodd;stroke:#313390;stroke-width:.0114565;stroke-miterlimit:10;stroke-opacity:1" d="m40.053 49.041-3.35 3.914-2.355 2.752c-.19.222-1.189 1.08-1.189 1.389 0 .27.875 1.022 1.041 1.216l2.309 2.697 3.544 4.142c1.116-1.305 2.232-2.61 3.35-3.914l2.354-2.752c.19-.223 1.189-1.08 1.189-1.39 0-.27-.875-1.021-1.04-1.215l-2.31-2.698-3.543-4.14"/><path style="fill:#fff;fill-rule:evenodd;stroke:#fff;stroke-width:.0114565;stroke-miterlimit:10;stroke-opacity:1" d="M34.883 51.055h10.295c.09 0 .045 9.882.045 10.825 0 .19.134 1.108 0 1.257-.15.166-1.404 0-1.616 0h-8.68c-.1 0-.044-.958-.044-1.07V51.056"/><path style="fill:#313390;fill-opacity:1;fill-rule:evenodd;stroke:#313390;stroke-width:.426453;stroke-linecap:round;stroke-linejoin:round;stroke-miterlimit:4;stroke-dasharray:none;stroke-opacity:1" d="M39.997 51.055c-.862 1.007-1.667 2.014-2.53 3.02l-1.776 2.077c-.129.15-.808.735-.808.944 0 .21.68.794.808.944l1.777 2.076 2.585 3.02 2.585-3.02 1.777-2.076c.128-.15.808-.735.808-.944 0-.21-.68-.794-.808-.944a5450.47 5450.47 0 0 0-1.777-2.077c-.862-1.006-1.78-2.013-2.641-3.02"/><path style="fill:#fff;fill-rule:evenodd;stroke:#313390;stroke-width:.0114565;stroke-miterlimit:10;stroke-opacity:1" d="M52.977 45.014h-1.723c.575.671 1.15 1.342 1.723 2.014v-2.014M52.977 48.034l-1.723-2.013v1.957c0 .118 1.501.056 1.723.056M27.128 45.014h1.723l-1.723 2.014v-2.014M27.128 48.034l1.723-2.013v1.957c0 .118-1.5.056-1.723.056M28.851 66.157h-1.723l1.723 2.014v-2.014M28.851 69.178l-1.723-2.014v1.957c0 .119 1.501.057 1.723.057M51.254 66.157h1.723l-1.723 2.014v-2.014M51.254 69.178l1.723-2.014v1.957c0 .119-1.5.057-1.723.057M28.851 59.11h-1.723l1.723 2.013V59.11M28.851 62.13l-1.723-2.014v1.957c0 .119 1.501.057 1.723.057M27.128 52.062h1.723l-1.723 2.013v-2.013M27.128 55.082l1.723-2.013v1.957c0 .118-1.5.056-1.723.056M52.977 52.062h-1.723c.575.67 1.15 1.342 1.723 2.013v-2.013M52.977 55.082l-1.723-2.013v1.957c0 .118 1.501.056 1.723.056M51.254 59.11h1.723l-1.723 2.013V59.11M51.254 62.13c.575-.671 1.15-1.342 1.723-2.014v1.957c0 .119-1.5.057-1.723.057"/><path style="fill:#313390;fill-opacity:1;fill-rule:evenodd;stroke:#313390;stroke-width:.426424;stroke-miterlimit:4;stroke-opacity:1" d="M34.043 14.935c-.353-.883-.725-1.782-.967-2.705-.217-.831-.39-2.861.701-3.26 1.048-.383 1.428 1.452 1.415 2.173-.02 1.083-.53 2.19-.912 3.185-.077.203-.157.406-.237.607"/><path style="fill:#313390;fill-opacity:1;fill-rule:evenodd;stroke:#313390;stroke-width:.426424;stroke-miterlimit:4;stroke-opacity:1" d="M34.037 14.955c-.866-.37-1.83-.73-2.596-1.292-.68-.498-1.764-1.973-1.132-2.876.638-.911 1.97.133 2.4.749.616.882.906 2.089 1.23 3.107l.098.312M34.04 14.955c.866-.37 1.83-.73 2.596-1.292.68-.497 1.764-1.974 1.132-2.876-.638-.911-1.97.133-2.4.749-.629.9-.923 2.137-1.252 3.176l-.076.243M31.821 15.076c-.7-.21-1.568-.14-2.016.517-.239.35-.293 1.709.467 1.445.132-.046.24-.642.402-.779.307-.261.884-.253 1.258-.284.503-.04 1.025.014 1.519-.055 0-.003.001-.005.003-.008a5.28 5.28 0 0 0-1.633-.836M36.221 15.076c.701-.21 1.569-.14 2.016.517.239.35.293 1.71-.466 1.445-.133-.046-.24-.642-.402-.779-.308-.261-.884-.253-1.258-.284-.503-.04-1.025.014-1.52-.055a.036.036 0 0 0-.003-.008 5.28 5.28 0 0 1 1.633-.836M33.447 17.033c.102.887 1.62.455.894-.765-.51-.858-.802-.056-.894.765M46.106 14.935c-.353-.883-.725-1.782-.967-2.705-.217-.831-.39-2.861.7-3.26 1.049-.383 1.43 1.452 1.416 2.173-.021 1.083-.529 2.19-.911 3.185-.079.203-.158.406-.238.607"/><path style="fill:#313390;fill-opacity:1;fill-rule:evenodd;stroke:#313390;stroke-width:.426424;stroke-miterlimit:4;stroke-opacity:1" d="M46.1 14.955c-.866-.37-1.83-.73-2.596-1.292-.68-.498-1.764-1.974-1.132-2.876.638-.91 1.97.133 2.4.749.617.882.906 2.09 1.23 3.107l.098.312M46.103 14.955c.866-.37 1.83-.73 2.596-1.292.681-.498 1.764-1.973 1.132-2.876-.638-.911-1.97.133-2.4.749-.63.9-.923 2.137-1.252 3.176l-.076.243M43.884 15.076c-.7-.21-1.568-.14-2.016.517-.239.35-.293 1.71.467 1.445.132-.046.24-.642.402-.779.307-.261.884-.253 1.258-.284.503-.04 1.025.014 1.519-.055 0-.003.002-.005.003-.008a5.278 5.278 0 0 0-1.633-.836M48.284 15.076c.7-.21 1.57-.14 2.017.517.238.35.293 1.709-.467 1.445-.133-.046-.24-.642-.402-.779-.308-.261-.884-.253-1.258-.284-.503-.04-1.025.014-1.52-.055a.022.022 0 0 0-.003-.008 5.288 5.288 0 0 1 1.633-.836M45.51 17.033c.102.887 1.62.455.895-.765-.51-.858-.803-.055-.895.765M58.169 14.935c-.352-.883-.725-1.782-.967-2.705-.217-.831-.39-2.861.702-3.26 1.047-.383 1.427 1.452 1.414 2.173-.021 1.083-.529 2.19-.912 3.185-.077.203-.157.406-.237.607"/><path style="fill:#313390;fill-opacity:1;fill-rule:evenodd;stroke:#313390;stroke-width:.426424;stroke-miterlimit:4;stroke-opacity:1" d="M58.163 14.955c-.866-.37-1.83-.73-2.596-1.292-.68-.498-1.764-1.974-1.132-2.876.638-.911 1.97.133 2.4.749.629.9.923 2.136 1.252 3.176l.076.243M58.166 14.955c.866-.37 1.83-.73 2.597-1.292.68-.498 1.763-1.974 1.131-2.876-.638-.911-1.97.133-2.4.749-.628.9-.923 2.137-1.252 3.176l-.076.243M55.948 15.076c-.701-.21-1.57-.14-2.017.517-.239.35-.293 1.709.467 1.445.132-.046.24-.642.402-.779.308-.261.884-.253 1.258-.284.503-.04 1.025.014 1.52-.055a.06.06 0 0 1 .002-.008 5.28 5.28 0 0 0-1.632-.836M60.347 15.076c.702-.21 1.57-.14 2.017.517.239.35.293 1.709-.467 1.445-.132-.046-.24-.642-.402-.779-.308-.261-.884-.253-1.258-.284-.503-.04-1.025.014-1.52-.055a.364.364 0 0 0-.002-.008 5.279 5.279 0 0 1 1.632-.836M57.573 17.033c.103.887 1.62.455.895-.765-.51-.858-.802-.055-.895.765M21.98 14.935c-.353-.883-.725-1.782-.967-2.705-.218-.831-.39-2.861.7-3.26 1.049-.383 1.43 1.452 1.415 2.173-.02 1.083-.528 2.19-.91 3.185-.079.203-.158.406-.238.607"/><path style="fill:#313390;fill-opacity:1;fill-rule:evenodd;stroke:#313390;stroke-width:.426424;stroke-miterlimit:4;stroke-opacity:1" d="M21.974 14.955c-.866-.37-1.83-.73-2.597-1.292-.68-.498-1.763-1.973-1.131-2.876.638-.911 1.97.133 2.4.749.616.882.906 2.09 1.23 3.107l.098.312M21.977 14.955c.866-.37 1.83-.73 2.596-1.292.68-.498 1.764-1.973 1.132-2.876-.639-.911-1.97.133-2.4.749-.617.882-.907 2.09-1.23 3.107-.034.104-.066.209-.098.312M19.758 15.076c-.7-.21-1.569-.14-2.016.517-.239.35-.293 1.71.466 1.445.133-.046.241-.642.402-.779.308-.261.885-.253 1.258-.284.503-.04 1.026.014 1.52-.055 0-.003.001-.005.003-.008a5.28 5.28 0 0 0-1.633-.836M24.158 15.076c.7-.21 1.569-.14 2.016.517.239.35.293 1.709-.466 1.445-.133-.046-.241-.642-.402-.779-.308-.261-.885-.253-1.258-.284-.503-.04-1.026.014-1.52-.055a.048.048 0 0 0-.003-.008 5.285 5.285 0 0 1 1.633-.836M21.384 17.033c.102.887 1.62.455.894-.765-.51-.858-.802-.055-.894.765M33.935 98.753c-.352.883-.725 1.783-.966 2.705-.218.831-.392 2.862.7 3.26 1.048.383 1.428-1.452 1.415-2.172-.02-1.084-.53-2.19-.911-3.185a50.303 50.303 0 0 0-.238-.608"/><path style="fill:#313390;fill-opacity:1;fill-rule:evenodd;stroke:#313390;stroke-width:.426424;stroke-miterlimit:4;stroke-opacity:1" d="M33.93 98.733c-.867.37-1.83.731-2.597 1.292-.68.498-1.764 1.974-1.132 2.876.638.911 1.97-.133 2.4-.748.617-.883.907-2.09 1.23-3.108l.098-.312M33.932 98.733c.866.37 1.83.731 2.596 1.292.681.498 1.764 1.974 1.132 2.876-.638.911-1.97-.133-2.4-.748-.629-.9-.923-2.137-1.252-3.177l-.076-.243M31.713 98.612c-.7.21-1.568.14-2.016-.517-.238-.35-.293-1.709.467-1.445.132.046.24.642.402.779.308.261.884.254 1.258.284.503.04 1.026-.014 1.52.055 0 .003 0 .006.002.008-.468.368-1.065.658-1.633.836M36.114 98.612c.7.21 1.568.14 2.016-.517.238-.35.293-1.708-.467-1.445-.132.046-.24.642-.402.779-.308.261-.884.254-1.258.284-.503.04-1.026-.014-1.52.055a.039.039 0 0 1-.002.008c.468.368 1.065.658 1.633.836M33.339 96.656c.102-.887 1.62-.456.895.764-.51.859-.802.056-.895-.764M45.998 98.753c-.352.883-.725 1.783-.966 2.705-.218.831-.391 2.862.7 3.26 1.048.383 1.429-1.452 1.415-2.172-.02-1.083-.528-2.19-.911-3.185a50.397 50.397 0 0 0-.238-.608"/><path style="fill:#313390;fill-opacity:1;fill-rule:evenodd;stroke:#313390;stroke-width:.426424;stroke-miterlimit:4;stroke-opacity:1" d="M45.992 98.733c-.866.37-1.83.731-2.596 1.292-.68.498-1.764 1.974-1.132 2.876.639.911 1.97-.133 2.4-.748.63-.9.923-2.137 1.252-3.177l.076-.243M45.995 98.733c.867.37 1.83.731 2.597 1.292.68.498 1.764 1.974 1.131 2.876-.638.911-1.97-.133-2.4-.748-.628-.9-.923-2.137-1.252-3.177l-.076-.243M43.776 98.612c-.7.21-1.568.14-2.016-.517-.238-.35-.293-1.709.467-1.445.132.046.24.642.402.779.308.261.884.254 1.258.284.503.04 1.026-.014 1.52.055l.002.008c-.468.368-1.065.658-1.633.836M48.177 98.612c.7.21 1.568.14 2.016-.517.238-.35.293-1.708-.466-1.445-.133.046-.241.642-.403.779-.308.261-.884.254-1.258.284-.503.04-1.025-.014-1.52.055a.018.018 0 0 1-.002.008c.468.368 1.065.658 1.633.836M45.402 96.656c.103-.887 1.62-.456.895.764-.51.859-.802.056-.895-.764M58.061 98.753c-.352.883-.725 1.783-.966 2.705-.218.831-.391 2.862.7 3.26 1.049.383 1.429-1.452 1.415-2.172-.02-1.083-.528-2.19-.911-3.185a50.342 50.342 0 0 0-.238-.608"/><path style="fill:#313390;fill-opacity:1;fill-rule:evenodd;stroke:#313390;stroke-width:.426424;stroke-miterlimit:4;stroke-opacity:1" d="M58.056 98.733c-.866.37-1.83.731-2.597 1.292-.68.498-1.763 1.974-1.132 2.876.638.911 1.97-.133 2.4-.748.617-.883.907-2.09 1.231-3.108l.098-.312M58.058 98.733c.866.37 1.83.731 2.597 1.292.68.498 1.763 1.974 1.131 2.876-.637.911-1.969-.133-2.4-.748-.616-.883-.906-2.09-1.23-3.108l-.098-.312M55.84 98.612c-.701.21-1.57.14-2.017-.517-.238-.35-.293-1.708.467-1.445.132.046.24.642.402.779.308.261.884.254 1.258.284.503.04 1.026-.014 1.52.055 0 .003.001.006.003.008a5.283 5.283 0 0 1-1.633.836M60.24 98.612c.7.21 1.569.14 2.016-.517.239-.35.293-1.708-.467-1.445-.132.046-.24.642-.402.779-.307.261-.883.254-1.258.284-.502.04-1.025-.014-1.52.055a.038.038 0 0 1-.002.008c.468.368 1.065.658 1.633.836M57.465 96.656c.103-.887 1.62-.456.895.764-.51.859-.802.056-.895-.764M21.872 98.753c-.353.883-.725 1.783-.967 2.705-.217.831-.39 2.862.701 3.26 1.048.383 1.429-1.452 1.415-2.172-.02-1.084-.53-2.19-.912-3.185a50.293 50.293 0 0 0-.237-.608"/><path style="fill:#313390;fill-opacity:1;fill-rule:evenodd;stroke:#313390;stroke-width:.426424;stroke-miterlimit:4;stroke-opacity:1" d="M21.866 98.733c-.866.37-1.83.731-2.596 1.292-.68.498-1.764 1.974-1.132 2.876.638.911 1.97-.133 2.4-.748.617-.883.906-2.09 1.23-3.108l.098-.312M21.869 98.733c.866.37 1.83.732 2.596 1.292.68.498 1.764 1.974 1.132 2.876-.638.911-1.97-.133-2.4-.748-.629-.9-.923-2.137-1.252-3.177l-.076-.243M19.65 98.612c-.7.21-1.569.14-2.016-.517-.239-.35-.293-1.709.467-1.445.132.046.24.642.402.779.308.261.884.254 1.258.284.503.04 1.025-.014 1.52.055 0 .003 0 .006.002.008a5.282 5.282 0 0 1-1.633.836M24.05 98.612c.701.21 1.569.141 2.017-.517.238-.35.293-1.709-.467-1.445-.132.046-.24.642-.402.779-.308.261-.884.254-1.258.284-.503.04-1.026-.014-1.52.055a.022.022 0 0 1-.003.008c.469.368 1.066.658 1.633.836M21.276 96.656c.102-.887 1.62-.456.895.764-.51.86-.802.056-.895-.764M67.114 99.353c.821.445 1.709.993 2.617 1.23.827.217 2.391.009 2.542-1.098.145-1.068-1.346-1.548-2.15-1.453-1.003.118-2.055.802-2.934 1.278l-.075.043"/><path style="fill:#313390;fill-opacity:1;fill-rule:evenodd;stroke:#313390;stroke-width:.426424;stroke-miterlimit:4;stroke-opacity:1" d="M67.099 99.359c.353 1.133 1.449 5.461 3.422 4.438.96-.498.187-2.146-.316-2.707-.71-.79-1.888-1.204-2.84-1.616-.088-.04-.178-.077-.266-.115M67.097 99.356c.354-1.135 1.45-5.464 3.424-4.439.96.499.188 2.142-.316 2.704-.71.79-1.888 1.207-2.84 1.62-.09.04-.18.077-.268.115M66.994 101.948c.16.73.193 1.823-.443 2.356-.413.347-1.482.232-1.236-.545.046-.144.543-.295.666-.471.256-.366.219-1.048.243-1.47.033-.587-.02-1.193.047-1.775.003 0 .005-.002.007-.003.332.572.57 1.261.716 1.909M66.994 96.807c.16-.73.194-1.824-.443-2.356-.413-.346-1.483-.234-1.236.545.045.143.544.294.666.47.256.365.219 1.049.243 1.47.033.588-.02 1.194.047 1.775.003 0 .005.002.007.003.331-.57.572-1.26.716-1.907M65.32 100.049c-.788-.193-.451-1.917.654-1.046.665.524.164.904-.655 1.046M67.116 85.257c.82.446 1.708.993 2.617 1.232.825.216 2.392.007 2.54-1.1.143-1.067-1.345-1.547-2.15-1.453-1.003.117-2.055.802-2.932 1.279l-.075.042"/><path style="fill:#313390;fill-opacity:1;fill-rule:evenodd;stroke:#313390;stroke-width:.426424;stroke-miterlimit:4;stroke-opacity:1" d="M67.097 85.264c.355 1.133 1.45 5.461 3.424 4.438.96-.498.188-2.145-.316-2.705-.711-.79-1.889-1.206-2.84-1.62l-.268-.113M67.099 85.26c.353-1.135 1.448-5.462 3.422-4.438.96.498.188 2.144-.316 2.704-.71.791-1.888 1.206-2.84 1.62l-.266.114M66.994 87.85c.16.733.194 1.823-.443 2.357-.412.346-1.484.237-1.236-.544.045-.142.544-.294.666-.47.256-.365.219-1.048.243-1.47.033-.588-.02-1.194.047-1.775a.034.034 0 0 0 .007-.003c.331.57.571 1.26.716 1.906M66.994 82.711c.16-.73.193-1.823-.443-2.356-.412-.346-1.485-.233-1.236.545.046.143.543.294.666.47.256.366.219 1.049.243 1.47.033.589-.02 1.194.047 1.776.003 0 .005.002.007.003.332-.571.57-1.26.716-1.908M65.32 85.953c-.788-.192-.45-1.919.654-1.047.666.525.164.905-.655 1.047M67.114 71.16c.82.448 1.71.996 2.619 1.233.826.216 2.39.007 2.54-1.1.145-1.067-1.345-1.548-2.15-1.454-1.004.118-2.056.804-2.934 1.28l-.075.042"/><path style="fill:#313390;fill-opacity:1;fill-rule:evenodd;stroke:#313390;stroke-width:.426424;stroke-miterlimit:4;stroke-opacity:1" d="M67.097 71.168c.355 1.134 1.45 5.462 3.424 4.438.96-.498.188-2.145-.316-2.705-.711-.79-1.889-1.206-2.84-1.62l-.268-.113M67.097 71.164c.355-1.134 1.45-5.461 3.424-4.438.96.498.188 2.145-.316 2.705-.711.79-1.889 1.206-2.84 1.62l-.268.113M66.994 73.757c.16.73.193 1.823-.443 2.356-.413.347-1.483.233-1.236-.545.045-.143.544-.294.666-.47.256-.366.219-1.05.243-1.47.033-.585-.028-1.204.052-1.777.338.556.574 1.265.718 1.906M66.994 68.615c.16-.729.193-1.823-.443-2.355-.413-.347-1.483-.234-1.236.545.045.143.544.294.666.47.256.365.219 1.049.243 1.47.033.585-.028 1.204.052 1.777.338-.556.574-1.265.718-1.907M65.32 71.858c-.788-.192-.45-1.916.654-1.048.667.525.162.904-.655 1.048M67.114 42.97c.82.446 1.71.995 2.617 1.232.827.216 2.391.007 2.542-1.1.145-1.067-1.346-1.547-2.15-1.453-1.004.119-2.055.803-2.934 1.28l-.075.041"/><path style="fill:#313390;fill-opacity:1;fill-rule:evenodd;stroke:#313390;stroke-width:.426424;stroke-miterlimit:4;stroke-opacity:1" d="M67.099 42.977c.353 1.134 1.449 5.46 3.422 4.438.96-.498.187-2.146-.316-2.707-.71-.79-1.888-1.204-2.84-1.617l-.266-.114M67.097 42.974c.354-1.135 1.45-5.464 3.424-4.439.96.499.188 2.142-.316 2.703-.71.791-1.889 1.207-2.84 1.621l-.268.115M66.994 45.566c.16.73.193 1.823-.443 2.356-.438.368-1.469.214-1.226-.565.037-.117.569-.328.684-.509.24-.38.198-1.065.22-1.493.027-.557-.035-1.156.05-1.697.331.571.57 1.26.715 1.908M66.994 40.425c.16-.73.194-1.824-.443-2.356-.412-.346-1.484-.234-1.236.545.045.143.544.294.666.47.256.365.219 1.049.243 1.47.033.588-.02 1.194.047 1.775.003 0 .005.002.007.003.332-.57.572-1.26.716-1.907M65.32 43.667c-.788-.193-.451-1.917.654-1.046.665.524.164.904-.655 1.046M67.116 28.875c.82.446 1.708.993 2.617 1.231.825.217 2.392.008 2.54-1.099.143-1.067-1.345-1.547-2.15-1.453-1.003.117-2.055.802-2.932 1.279l-.075.042"/><path style="fill:#313390;fill-opacity:1;fill-rule:evenodd;stroke:#313390;stroke-width:.426424;stroke-miterlimit:4;stroke-opacity:1" d="M67.097 28.881c.355 1.135 1.45 5.462 3.424 4.439.96-.498.188-2.145-.316-2.705-.711-.79-1.889-1.206-2.84-1.62l-.268-.114M67.099 28.878c.353-1.135 1.448-5.462 3.422-4.438.96.498.187 2.144-.316 2.704-.71.79-1.887 1.206-2.84 1.62l-.266.114M66.994 31.469c.16.732.194 1.822-.443 2.356-.412.346-1.484.237-1.236-.544.045-.143.544-.294.666-.47.256-.365.219-1.049.243-1.47.033-.588-.02-1.194.047-1.775a.026.026 0 0 0 .007-.003c.331.57.571 1.26.716 1.906M66.994 26.329c.16-.73.193-1.823-.443-2.356-.412-.346-1.482-.234-1.236.544.046.144.543.294.666.471.256.366.219 1.049.243 1.47.033.589-.02 1.194.047 1.776.003 0 .005.002.007.003.332-.571.57-1.26.716-1.908M65.32 29.571c-.788-.192-.45-1.919.654-1.047.666.525.164.905-.655 1.047M67.114 14.78c.82.446 1.71.994 2.619 1.23.826.217 2.39.008 2.54-1.098.145-1.068-1.345-1.55-2.15-1.455-1.004.118-2.056.804-2.934 1.28l-.075.042"/><path style="fill:#313390;fill-opacity:1;fill-rule:evenodd;stroke:#313390;stroke-width:.426424;stroke-miterlimit:4;stroke-opacity:1" d="M67.097 14.786c.355 1.134 1.45 5.462 3.424 4.438.96-.498.188-2.145-.316-2.705-.711-.79-1.889-1.205-2.84-1.62l-.268-.113M67.097 14.783c.355-1.135 1.45-5.462 3.424-4.439.96.498.188 2.145-.316 2.705-.711.79-1.889 1.206-2.84 1.62l-.268.114M66.994 17.375c.16.73.193 1.823-.443 2.356-.413.347-1.483.233-1.236-.545.045-.143.544-.294.666-.47.256-.366.219-1.05.243-1.47.033-.585-.028-1.204.052-1.777.338.556.574 1.265.718 1.906M66.994 12.234c.16-.73.193-1.824-.443-2.356-.413-.347-1.483-.234-1.236.545.045.143.544.294.666.47.256.365.219 1.049.243 1.47.033.585-.028 1.204.052 1.777.338-.557.574-1.265.718-1.906M65.32 15.476c-.788-.192-.45-1.916.654-1.048.667.524.162.904-.655 1.048M67.114 57.066c.82.446 1.71.994 2.619 1.231.826.216 2.39.008 2.54-1.099.145-1.068-1.345-1.548-2.15-1.453-1.004.118-2.055.802-2.934 1.279l-.075.042"/><path style="fill:#313390;fill-opacity:1;fill-rule:evenodd;stroke:#313390;stroke-width:.426424;stroke-miterlimit:4;stroke-opacity:1" d="M67.097 57.072c.355 1.135 1.45 5.462 3.424 4.439.96-.498.188-2.145-.316-2.705-.711-.79-1.889-1.206-2.84-1.62l-.268-.114M67.097 57.069c.355-1.134 1.45-5.462 3.424-4.438.96.498.188 2.144-.316 2.704-.711.79-1.889 1.206-2.84 1.62l-.268.114M66.994 59.662c.16.729.193 1.823-.443 2.355-.413.348-1.482.234-1.236-.545.045-.143.543-.296.666-.471.256-.366.219-1.05.243-1.47.033-.588-.02-1.193.047-1.774a.021.021 0 0 0 .007-.004c.332.572.57 1.261.716 1.909M66.994 54.52c.16-.73.193-1.823-.443-2.356-.413-.347-1.483-.233-1.236.545.045.143.544.295.666.47.256.366.219 1.05.243 1.47.033.586-.028 1.204.052 1.777.337-.556.574-1.265.718-1.906M65.32 57.76c-.786-.187-.452-1.917.654-1.043.663.524.162.904-.655 1.043M12.991 99.353c-.82.445-1.708.993-2.616 1.23-.827.217-2.392.009-2.542-1.098-.146-1.068 1.345-1.548 2.15-1.453 1.003.118 2.055.802 2.933 1.278l.075.043"/><path style="fill:#313390;fill-opacity:1;fill-rule:evenodd;stroke:#313390;stroke-width:.426424;stroke-miterlimit:4;stroke-opacity:1" d="M13.007 99.359c-.353 1.133-1.45 5.46-3.422 4.438-.961-.498-.188-2.146.316-2.707.71-.79 1.887-1.204 2.839-1.616.089-.04.178-.077.267-.115M13.008 99.356c-.354-1.135-1.45-5.464-3.423-4.439-.96.499-.189 2.142.316 2.704.71.79 1.887 1.207 2.84 1.62.089.04.179.077.267.115M13.112 101.948c-.16.73-.193 1.823.442 2.356.414.347 1.483.232 1.236-.545-.045-.144-.542-.295-.666-.471-.255-.366-.219-1.048-.243-1.47-.033-.587.02-1.193-.047-1.775l-.007-.003c-.331.572-.57 1.261-.715 1.909M13.112 96.807c-.16-.73-.194-1.824.442-2.356.414-.346 1.484-.234 1.236.545-.045.143-.543.294-.666.47-.255.365-.219 1.049-.243 1.47-.033.587.02 1.194-.047 1.775a.05.05 0 0 0-.007.003c-.331-.57-.572-1.26-.715-1.907M14.786 100.049c.787-.193.45-1.917-.655-1.046-.665.524-.163.904.655 1.046M12.99 85.257c-.822.446-1.709.993-2.617 1.232-.825.216-2.392.007-2.54-1.1-.143-1.067 1.345-1.547 2.15-1.453 1.002.117 2.055.802 2.932 1.279l.075.042"/><path style="fill:#313390;fill-opacity:1;fill-rule:evenodd;stroke:#313390;stroke-width:.426424;stroke-miterlimit:4;stroke-opacity:1" d="M13.008 85.264c-.355 1.134-1.45 5.461-3.423 4.438-.96-.498-.189-2.145.316-2.705.71-.79 1.888-1.206 2.84-1.62l.267-.113M13.007 85.26c-.354-1.135-1.448-5.462-3.422-4.438-.96.498-.188 2.144.316 2.704.71.79 1.887 1.207 2.839 1.62l.267.114M13.112 87.85c-.16.733-.194 1.823.442 2.357.413.346 1.484.237 1.236-.544-.045-.143-.543-.294-.666-.47-.255-.365-.219-1.048-.243-1.47-.033-.588.02-1.194-.047-1.775a.05.05 0 0 1-.007-.003c-.33.57-.571 1.26-.715 1.906M13.112 82.711c-.16-.73-.193-1.823.442-2.356.413-.346 1.485-.233 1.236.545-.045.143-.543.294-.666.47-.256.366-.219 1.049-.243 1.47-.033.589.02 1.194-.047 1.776a.05.05 0 0 0-.007.003c-.331-.572-.57-1.26-.715-1.908M14.786 85.953c.788-.192.45-1.919-.655-1.047-.665.525-.163.905.655 1.047M12.991 71.16c-.82.448-1.71.996-2.618 1.233-.827.216-2.39.007-2.54-1.1-.145-1.067 1.345-1.548 2.15-1.454 1.003.118 2.055.804 2.933 1.28.025.014.05.03.075.042"/><path style="fill:#313390;fill-opacity:1;fill-rule:evenodd;stroke:#313390;stroke-width:.426424;stroke-miterlimit:4;stroke-opacity:1" d="M13.008 71.168c-.355 1.134-1.449 5.461-3.423 4.438-.96-.497-.189-2.145.316-2.705.71-.79 1.888-1.205 2.84-1.62l.267-.113M13.008 71.164c-.355-1.134-1.45-5.46-3.423-4.438-.96.498-.188 2.145.316 2.705.71.79 1.888 1.206 2.84 1.62l.267.113M13.112 73.757c-.16.73-.193 1.823.442 2.356.414.347 1.484.233 1.236-.545-.045-.143-.543-.294-.666-.47-.256-.366-.219-1.05-.243-1.47-.033-.585.03-1.204-.051-1.777-.338.557-.574 1.265-.718 1.906M13.112 68.615c-.16-.729-.193-1.823.442-2.355.414-.347 1.484-.234 1.236.545-.045.143-.543.294-.666.47-.256.365-.219 1.049-.243 1.47-.033.585.03 1.204-.051 1.777-.338-.557-.574-1.265-.718-1.907M14.786 71.858c.788-.193.45-1.915-.655-1.048-.667.525-.161.904.655 1.048M12.991 42.97c-.82.446-1.709.994-2.616 1.232-.827.216-2.392.007-2.542-1.1-.146-1.067 1.345-1.547 2.15-1.453 1.003.119 2.055.803 2.933 1.28l.075.041"/><path style="fill:#313390;fill-opacity:1;fill-rule:evenodd;stroke:#313390;stroke-width:.426424;stroke-miterlimit:4;stroke-opacity:1" d="M13.007 42.977c-.354 1.134-1.45 5.46-3.422 4.438-.961-.498-.188-2.146.316-2.707.71-.79 1.887-1.205 2.839-1.617l.267-.114M13.008 42.974c-.354-1.135-1.45-5.464-3.423-4.439-.96.499-.189 2.142.316 2.703.71.791 1.888 1.207 2.84 1.621l.267.115M13.112 45.566c-.16.73-.193 1.823.442 2.356.439.368 1.47.214 1.227-.565-.037-.117-.57-.328-.684-.509-.24-.38-.198-1.065-.22-1.493-.028-.557.035-1.156-.05-1.697-.332.572-.57 1.26-.715 1.908M13.112 40.425c-.16-.73-.194-1.824.442-2.356.413-.346 1.484-.234 1.236.545-.045.143-.543.294-.666.47-.255.365-.219 1.049-.243 1.47-.033.588.02 1.194-.047 1.775a.035.035 0 0 0-.007.003c-.331-.57-.572-1.26-.715-1.907M14.786 43.667c.787-.193.45-1.917-.655-1.046-.665.524-.163.904.655 1.046M12.99 28.875c-.821.446-1.709.993-2.617 1.231-.825.217-2.392.008-2.54-1.099-.143-1.067 1.345-1.547 2.15-1.453 1.002.117 2.055.803 2.932 1.279l.075.042"/><path style="fill:#313390;fill-opacity:1;fill-rule:evenodd;stroke:#313390;stroke-width:.426424;stroke-miterlimit:4;stroke-opacity:1" d="M13.008 28.881c-.355 1.135-1.45 5.462-3.423 4.439-.96-.498-.188-2.145.316-2.705.71-.79 1.888-1.206 2.84-1.62l.267-.114M13.007 28.878c-.354-1.135-1.448-5.462-3.422-4.438-.961.497-.188 2.144.316 2.704.71.79 1.887 1.206 2.839 1.62l.267.114M13.112 31.469c-.16.732-.194 1.822.442 2.356.413.346 1.484.237 1.236-.544-.045-.143-.543-.294-.666-.47-.255-.365-.219-1.049-.243-1.47-.033-.588.02-1.194-.047-1.775a.035.035 0 0 1-.007-.003c-.33.57-.571 1.26-.715 1.906M13.112 26.329c-.16-.73-.193-1.823.442-2.356.413-.346 1.482-.234 1.236.544-.045.144-.542.294-.666.471-.256.366-.219 1.049-.243 1.47-.033.588.02 1.194-.047 1.776a.031.031 0 0 0-.007.003c-.331-.572-.57-1.26-.715-1.908M14.786 29.571c.787-.192.45-1.919-.655-1.047-.665.525-.163.905.655 1.047M12.991 14.78c-.82.446-1.71.994-2.618 1.23-.827.217-2.39.008-2.54-1.098-.145-1.068 1.345-1.55 2.15-1.455 1.003.118 2.055.804 2.933 1.28l.075.042"/><path style="fill:#313390;fill-opacity:1;fill-rule:evenodd;stroke:#313390;stroke-width:.426424;stroke-miterlimit:4;stroke-opacity:1" d="M13.008 14.786c-.355 1.134-1.45 5.461-3.423 4.438-.96-.498-.188-2.145.316-2.705.71-.79 1.888-1.205 2.84-1.62l.267-.113M13.008 14.783c-.354-1.135-1.45-5.462-3.423-4.439-.96.498-.188 2.145.316 2.705.71.79 1.888 1.206 2.84 1.62l.267.114M13.112 17.375c-.16.73-.193 1.823.442 2.356.414.347 1.484.233 1.236-.545-.045-.143-.543-.294-.666-.47-.256-.366-.219-1.05-.243-1.47-.033-.585.03-1.204-.051-1.777-.338.556-.574 1.265-.718 1.906M13.112 12.234c-.16-.73-.193-1.824.442-2.356.414-.347 1.484-.234 1.236.545-.045.143-.543.294-.666.47-.256.365-.219 1.049-.243 1.47-.033.585.03 1.204-.051 1.777-.338-.557-.574-1.265-.718-1.906M14.786 15.476c.788-.193.45-1.916-.655-1.048-.667.524-.161.904.655 1.048M12.991 57.066c-.82.446-1.71.994-2.618 1.231-.827.216-2.39.008-2.54-1.099-.146-1.068 1.345-1.548 2.15-1.453 1.003.118 2.055.802 2.933 1.279l.075.042"/><path style="fill:#313390;fill-opacity:1;fill-rule:evenodd;stroke:#313390;stroke-width:.426424;stroke-miterlimit:4;stroke-opacity:1" d="M13.008 57.072c-.355 1.135-1.45 5.462-3.423 4.439-.96-.498-.188-2.145.316-2.705.71-.79 1.888-1.206 2.84-1.62l.267-.114M13.008 57.069c-.355-1.135-1.45-5.462-3.423-4.438-.96.497-.188 2.144.316 2.704.71.79 1.888 1.206 2.84 1.62l.267.114M13.112 59.662c-.16.73-.193 1.823.442 2.355.414.348 1.483.234 1.236-.545-.045-.144-.543-.295-.666-.471-.256-.366-.219-1.05-.243-1.47-.033-.588.02-1.193-.047-1.774l-.007-.004c-.331.572-.57 1.261-.715 1.909M13.112 54.52c-.16-.73-.194-1.823.442-2.356.414-.347 1.484-.233 1.236.545-.045.143-.543.294-.666.47-.256.366-.219 1.05-.243 1.47-.033.585.03 1.204-.051 1.777-.338-.557-.574-1.264-.718-1.906M14.786 57.76c.786-.187.45-1.917-.655-1.043-.663.524-.162.904.655 1.043"/><path style="fill:none;fill-rule:nonzero;stroke:#313390;stroke-width:.0114565;stroke-miterlimit:10;stroke-opacity:1" d="M35.523 68.045h.012"/><path style="fill:#313390;fill-opacity:1;fill-rule:evenodd;stroke:#313390;stroke-width:.0114565;stroke-miterlimit:10;stroke-opacity:1" d="M36.606 53.069c.71 0 6.893-.06 6.893.058v8.18c-.438.073-6.93-.208-6.93.015l.037-8.253"/><path style="fill:#fff;fill-rule:evenodd;stroke:#313390;stroke-width:.426424;stroke-miterlimit:4;stroke-opacity:1" d="m37.037 54.579.862-1.007.43 1.51-1.292-.503M42.207 53.572l.861 1.007-1.292.503.431-1.51M42.234 60.591l.862-1.007-1.292-.503.43 1.51M37.899 60.62l-.862-1.007 1.292-.503-.43 1.51M40.053 53.069l-.852 2.986c-.106.37-2.183.88-2.595 1.04.412.161 2.489.67 2.595 1.042l.852 2.986.852-2.986c.106-.371 2.183-.88 2.594-1.041-.411-.16-2.488-.67-2.594-1.04l-.852-2.987"/><path style="fill:#fff;fill-rule:evenodd;stroke:#313390;stroke-width:.0114565;stroke-miterlimit:10;stroke-opacity:1" d="m61.163 54.579-.42 1.966c-.05.229-1.47.474-1.734.55.264.078 1.685.323 1.733.551l.421 1.967.421-1.967c.049-.228 1.47-.473 1.733-.55-.264-.077-1.684-.322-1.733-.55l-.42-1.967M61.159 47.528l-.42 1.967c-.05.228-1.47.473-1.734.55.264.077 1.684.321 1.733.55l.42 1.967.422-1.967c.049-.229 1.469-.473 1.733-.55-.264-.077-1.684-.322-1.733-.55l-.421-1.967M61.17 61.622l-.42 1.966c-.05.229-1.47.473-1.734.55.265.078 1.685.323 1.734.55l.42 1.968.421-1.967c.05-.228 1.47-.473 1.734-.55-.264-.078-1.684-.322-1.734-.55l-.42-1.967M55.131 54.579l-.42 1.966c-.05.229-1.47.474-1.734.55.265.078 1.685.323 1.734.551l.42 1.967.421-1.967c.05-.228 1.47-.473 1.733-.55-.264-.077-1.684-.322-1.733-.55l-.42-1.967M55.127 47.528l-.42 1.967c-.05.228-1.47.473-1.734.55.264.077 1.685.321 1.733.55l.421 1.967.421-1.967c.049-.229 1.47-.473 1.733-.55-.264-.077-1.684-.322-1.733-.55l-.42-1.967M55.139 61.622l-.42 1.966c-.05.229-1.47.473-1.734.55.264.078 1.684.323 1.733.55l.42 1.968.422-1.967c.049-.228 1.469-.473 1.733-.55-.264-.078-1.684-.322-1.733-.55l-.421-1.967M43.068 75.219l-.42 1.967c-.049.228-1.47.472-1.733.55.264.077 1.684.322 1.733.55l.42 1.967.422-1.967c.048-.228 1.469-.473 1.733-.55-.264-.078-1.685-.322-1.733-.55l-.422-1.967M37.037 75.219l-.42 1.967c-.05.228-1.47.472-1.734.55.264.077 1.684.322 1.733.55l.42 1.967.422-1.967c.049-.228 1.469-.473 1.733-.55-.264-.078-1.684-.322-1.733-.55l-.421-1.967M49.096 75.207l-.421 1.967c-.049.228-1.47.473-1.734.55.264.077 1.685.322 1.734.55l.42 1.967.421-1.967c.05-.228 1.47-.473 1.734-.55-.265-.077-1.684-.322-1.734-.55l-.42-1.967M31.022 75.225l-.42 1.967c-.049.229-1.47.473-1.734.55.265.077 1.685.322 1.734.55l.42 1.967.422-1.966c.048-.229 1.469-.474 1.733-.55-.264-.078-1.685-.322-1.733-.551l-.422-1.967M61.15 75.217l-.42 1.967c-.05.228-1.47.473-1.734.55.264.077 1.685.322 1.734.55l.42 1.967.421-1.966c.049-.23 1.47-.474 1.734-.55-.265-.078-1.685-.323-1.734-.551l-.42-1.967M55.118 75.217l-.42 1.967c-.05.228-1.47.473-1.734.55.265.077 1.685.322 1.734.55l.42 1.967.422-1.966c.049-.23 1.469-.474 1.733-.55-.264-.078-1.684-.323-1.733-.551l-.422-1.967M43.068 82.266l-.42 1.967c-.049.228-1.47.473-1.733.55.264.078 1.684.322 1.733.55l.42 1.967.422-1.966c.048-.229 1.469-.473 1.733-.55-.264-.078-1.685-.323-1.733-.55l-.422-1.968M37.037 82.266l-.42 1.967c-.05.228-1.47.473-1.734.55.264.078 1.684.322 1.733.55l.42 1.967.422-1.966c.049-.229 1.469-.473 1.733-.55-.264-.078-1.684-.323-1.733-.55l-.421-1.968M49.096 82.255l-.421 1.967c-.049.228-1.47.472-1.734.55.264.077 1.685.322 1.734.55l.42 1.967.421-1.967c.05-.228 1.47-.473 1.734-.55-.265-.078-1.685-.322-1.734-.55l-.42-1.967M31.022 82.273l-.42 1.967c-.049.228-1.47.473-1.734.55.265.077 1.685.322 1.734.55l.42 1.967.422-1.966c.048-.23 1.469-.474 1.733-.55-.264-.078-1.685-.323-1.733-.551l-.422-1.967M61.15 82.265l-.42 1.966c-.05.23-1.47.474-1.734.55.264.078 1.685.323 1.734.551l.42 1.967.421-1.967c.049-.228 1.47-.473 1.734-.55-.265-.077-1.685-.322-1.734-.55l-.42-1.967M55.118 82.265l-.42 1.966c-.05.23-1.47.474-1.734.55.265.078 1.685.323 1.734.551l.42 1.967.422-1.967c.049-.228 1.469-.473 1.733-.55-.264-.077-1.684-.322-1.733-.55l-.422-1.967M43.068 89.314l-.42 1.967c-.049.228-1.47.473-1.733.55.264.077 1.684.322 1.733.55l.42 1.967.422-1.967c.048-.228 1.469-.473 1.733-.55-.264-.077-1.685-.322-1.733-.55l-.422-1.967M37.037 89.314l-.42 1.967c-.05.228-1.47.473-1.734.55.264.077 1.684.322 1.733.55l.42 1.967.422-1.967c.049-.228 1.469-.473 1.733-.55-.264-.077-1.684-.322-1.733-.55l-.421-1.967M49.096 89.302l-.421 1.968c-.049.228-1.47.472-1.734.55.264.077 1.685.321 1.734.55l.42 1.966.421-1.966c.05-.229 1.47-.473 1.734-.55-.265-.078-1.685-.322-1.734-.55l-.42-1.968M31.022 89.321l-.42 1.966c-.049.229-1.47.474-1.734.55.265.078 1.685.323 1.734.551l.42 1.967.422-1.967c.048-.228 1.469-.473 1.733-.55-.264-.077-1.685-.322-1.733-.55l-.422-1.967M61.15 89.313l-.42 1.966c-.05.229-1.47.474-1.734.55.264.078 1.685.322 1.734.55l.42 1.968.421-1.967c.049-.229 1.47-.473 1.734-.55-.265-.077-1.685-.322-1.734-.55l-.42-1.967M55.118 89.313l-.42 1.966c-.05.229-1.47.474-1.734.55.265.078 1.685.322 1.734.55l.42 1.968.422-1.967c.049-.229 1.469-.473 1.733-.55-.264-.077-1.684-.322-1.733-.55l-.422-1.967M43.068 68.674l-.42 1.967c-.049.229-1.47.473-1.733.55.264.078 1.684.322 1.733.55l.42 1.967.422-1.966c.048-.229 1.469-.474 1.733-.55-.264-.078-1.685-.322-1.733-.55l-.422-1.968M37.037 68.674l-.42 1.967c-.05.229-1.47.473-1.734.55.264.077 1.684.322 1.733.55l.42 1.967.422-1.966c.049-.229 1.469-.474 1.733-.55-.264-.078-1.684-.322-1.733-.55l-.421-1.968M49.096 68.663l-.421 1.966c-.049.229-1.47.474-1.734.55.264.078 1.685.323 1.734.551l.42 1.967.421-1.967c.05-.228 1.47-.473 1.734-.55-.265-.077-1.684-.322-1.734-.55l-.42-1.967M31.022 68.681l-.42 1.967c-.049.228-1.47.473-1.734.55.265.077 1.685.322 1.734.55l.42 1.967.422-1.966c.048-.229 1.469-.474 1.733-.551-.264-.077-1.685-.322-1.733-.55l-.422-1.967M61.15 68.672l-.42 1.968c-.05.228-1.47.472-1.734.55.264.077 1.685.321 1.734.55l.42 1.967.421-1.967c.049-.229 1.47-.473 1.734-.55-.265-.078-1.685-.322-1.734-.55l-.42-1.968M55.118 68.672l-.42 1.968c-.05.228-1.47.472-1.734.55.265.077 1.685.321 1.734.55l.42 1.967.422-1.967c.049-.229 1.469-.473 1.733-.55-.264-.078-1.684-.322-1.733-.55l-.422-1.968M37.037 40.483l-.42 1.967c-.05.229-1.47.473-1.734.55.264.077 1.684.322 1.733.55l.42 1.967.422-1.966c.049-.229 1.469-.474 1.733-.55-.264-.078-1.684-.322-1.733-.551l-.421-1.967M31.005 40.483l-.42 1.967c-.05.229-1.47.473-1.734.55.264.077 1.685.322 1.734.55l.42 1.967.421-1.966c.05-.229 1.47-.474 1.733-.55-.264-.078-1.684-.322-1.733-.551l-.42-1.967M49.098 40.483l-.42 1.967c-.049.229-1.47.473-1.734.55.265.077 1.685.322 1.734.55l.42 1.967.422-1.966c.048-.229 1.469-.474 1.733-.55-.264-.078-1.685-.322-1.733-.551l-.422-1.967M43.066 40.483l-.421 1.967c-.049.229-1.47.473-1.734.55.265.077 1.685.322 1.734.55l.42 1.967.422-1.966c.048-.229 1.469-.474 1.733-.55-.264-.078-1.685-.322-1.733-.551l-.421-1.967M31.008 33.43l-.42 1.967c-.05.229-1.47.473-1.734.55.264.078 1.685.322 1.733.55l.421 1.968.421-1.967c.049-.229 1.47-.473 1.733-.55-.264-.078-1.684-.322-1.733-.55l-.42-1.967M37.037 33.435l-.42 1.967c-.05.229-1.47.473-1.734.55.264.078 1.684.322 1.733.551l.42 1.967.422-1.967c.049-.229 1.469-.473 1.733-.55-.264-.078-1.684-.322-1.733-.55l-.421-1.968M43.068 33.435l-.42 1.967c-.049.229-1.47.473-1.733.55.264.078 1.684.322 1.733.551l.42 1.967.422-1.967c.048-.229 1.469-.473 1.733-.55-.264-.078-1.685-.322-1.733-.55l-.422-1.968M49.1 33.435l-.42 1.967c-.05.229-1.47.473-1.734.55.264.078 1.684.322 1.733.551l.421 1.967.42-1.967c.05-.229 1.47-.473 1.734-.55-.264-.078-1.684-.322-1.733-.55l-.42-1.968M61.157 40.475l-.42 1.967c-.05.228-1.47.473-1.734.55.264.077 1.685.322 1.734.55l.42 1.967.421-1.967c.05-.228 1.47-.473 1.733-.55-.264-.077-1.684-.322-1.733-.55l-.42-1.967M61.163 33.435l-.42 1.967c-.05.229-1.47.473-1.734.55.264.078 1.685.322 1.733.551l.421 1.967.421-1.967c.049-.229 1.47-.473 1.733-.55-.264-.078-1.684-.322-1.733-.55l-.42-1.968M55.126 40.475l-.42 1.967c-.05.228-1.47.473-1.734.55.264.077 1.684.322 1.733.55l.421 1.967.42-1.967c.05-.228 1.47-.473 1.734-.55-.264-.077-1.684-.322-1.734-.55l-.42-1.967M55.131 33.435l-.42 1.967c-.05.229-1.47.473-1.734.55.265.078 1.685.322 1.734.551l.42 1.967.421-1.967c.05-.229 1.47-.473 1.733-.55-.264-.078-1.684-.322-1.733-.55l-.42-1.968M37.037 26.388l-.42 1.967c-.05.228-1.47.473-1.734.55.264.077 1.684.322 1.733.55l.42 1.967.422-1.967c.049-.228 1.469-.473 1.733-.55-.264-.077-1.684-.322-1.733-.55l-.421-1.967M31.005 26.388l-.42 1.967c-.05.228-1.47.473-1.734.55.264.077 1.685.322 1.734.55l.42 1.967.421-1.967c.05-.228 1.47-.473 1.733-.55-.264-.077-1.684-.322-1.733-.55l-.42-1.967M49.098 26.388l-.42 1.967c-.049.228-1.47.473-1.734.55.265.077 1.685.322 1.734.55l.42 1.967.422-1.967c.048-.228 1.469-.473 1.733-.55-.264-.077-1.685-.322-1.733-.55l-.422-1.967M43.066 26.388l-.421 1.967c-.049.228-1.47.473-1.734.55.265.077 1.685.322 1.734.55l.42 1.967.422-1.967c.048-.228 1.469-.473 1.733-.55-.264-.077-1.685-.322-1.733-.55l-.421-1.967M31.008 19.335l-.42 1.967c-.05.228-1.47.473-1.734.55.264.077 1.684.322 1.733.55l.421 1.967.421-1.967c.049-.228 1.47-.473 1.733-.55-.264-.077-1.684-.322-1.733-.55l-.42-1.967M37.037 19.34l-.42 1.967c-.05.228-1.47.473-1.734.55.264.077 1.684.322 1.733.55l.42 1.967.422-1.967c.049-.228 1.469-.473 1.733-.55-.264-.077-1.684-.322-1.733-.55l-.421-1.967M43.068 19.34l-.42 1.967c-.049.228-1.47.473-1.733.55.264.077 1.684.322 1.733.55l.42 1.967.422-1.967c.048-.228 1.469-.473 1.733-.55-.264-.077-1.685-.322-1.733-.55l-.422-1.967M49.1 19.34l-.42 1.967c-.05.228-1.47.473-1.734.55.264.077 1.684.322 1.733.55l.421 1.967.42-1.967c.05-.228 1.47-.473 1.734-.55-.264-.077-1.684-.322-1.733-.55l-.42-1.967M61.157 26.38l-.42 1.966c-.05.229-1.47.473-1.734.55.264.078 1.685.322 1.734.55l.42 1.967.421-1.966c.05-.229 1.47-.473 1.733-.55-.264-.078-1.684-.322-1.733-.55l-.42-1.968M61.163 19.34l-.42 1.967c-.05.228-1.47.473-1.734.55.264.077 1.685.322 1.733.55l.421 1.967.421-1.967c.049-.228 1.47-.473 1.733-.55-.264-.077-1.684-.322-1.733-.55l-.42-1.967M55.126 26.38l-.42 1.966c-.05.229-1.47.473-1.734.55.264.078 1.684.322 1.733.55l.421 1.967.42-1.966c.05-.229 1.47-.473 1.734-.55-.264-.078-1.684-.322-1.734-.55l-.42-1.968M55.131 19.34l-.42 1.967c-.05.228-1.47.473-1.734.55.265.077 1.685.322 1.734.55l.42 1.967.421-1.967c.05-.228 1.47-.473 1.733-.55-.264-.077-1.684-.322-1.733-.55l-.42-1.967M18.938 61.633l-.42 1.967c-.05.228-1.47.473-1.734.55.264.078 1.684.322 1.733.55l.42 1.967.422-1.966c.049-.229 1.469-.473 1.733-.55-.264-.078-1.684-.323-1.733-.55l-.421-1.968M18.95 54.589l-.421 1.967c-.05.228-1.47.472-1.734.55.265.077 1.685.322 1.734.55l.42 1.967.421-1.967c.05-.228 1.47-.473 1.734-.55-.265-.078-1.685-.322-1.734-.55l-.42-1.967M18.956 47.53l-.42 1.966c-.05.229-1.47.473-1.734.55.265.078 1.685.322 1.734.55l.42 1.968.422-1.967c.048-.229 1.469-.473 1.733-.55-.264-.078-1.685-.322-1.733-.55l-.422-1.968M18.942 75.219l-.42 1.967c-.05.228-1.47.472-1.734.55.264.077 1.685.322 1.733.55l.421 1.967.421-1.967c.049-.228 1.47-.473 1.733-.55-.264-.078-1.684-.322-1.733-.55l-.42-1.967M18.942 82.266l-.42 1.967c-.05.228-1.47.473-1.734.55.264.078 1.685.322 1.733.55l.421 1.967.421-1.966c.049-.229 1.47-.473 1.733-.55-.264-.078-1.684-.323-1.733-.55l-.42-1.968M18.942 89.314l-.42 1.967c-.05.228-1.47.473-1.734.55.264.077 1.685.322 1.733.55l.421 1.967.421-1.967c.049-.228 1.47-.473 1.733-.55-.264-.077-1.684-.322-1.733-.55l-.42-1.967M18.942 68.674l-.42 1.967c-.05.229-1.47.473-1.734.55.264.077 1.685.322 1.733.55l.421 1.967.421-1.966c.049-.229 1.47-.473 1.733-.55-.264-.078-1.684-.322-1.733-.55l-.42-1.968M18.947 40.482l-.421 1.966c-.05.229-1.47.474-1.734.55.265.078 1.685.323 1.734.551l.42 1.967.421-1.967c.05-.228 1.47-.473 1.734-.55-.264-.077-1.685-.322-1.734-.55l-.42-1.967M18.942 33.435l-.42 1.967c-.05.229-1.47.473-1.734.55.264.078 1.685.322 1.733.551l.421 1.967.421-1.967c.049-.229 1.47-.473 1.733-.55-.264-.078-1.684-.322-1.733-.55l-.42-1.968M18.947 26.386l-.421 1.967c-.05.228-1.47.473-1.734.55.265.077 1.685.322 1.734.55l.42 1.967.421-1.966c.05-.229 1.47-.474 1.734-.55-.264-.078-1.685-.323-1.734-.551l-.42-1.967M18.942 19.34l-.42 1.967c-.05.228-1.47.473-1.734.55.264.077 1.685.322 1.733.55l.421 1.967.421-1.967c.049-.228 1.47-.473 1.733-.55-.264-.077-1.684-.322-1.733-.55l-.42-1.967M24.97 61.633l-.421 1.967c-.05.228-1.47.473-1.734.55.264.078 1.685.322 1.734.55l.42 1.967.421-1.966c.049-.229 1.47-.473 1.734-.55-.264-.078-1.685-.323-1.734-.55l-.42-1.968M24.98 54.589l-.42 1.967c-.049.228-1.469.472-1.733.55.264.077 1.684.322 1.733.55l.42 1.967.422-1.967c.049-.228 1.47-.473 1.733-.55-.264-.078-1.684-.322-1.733-.55l-.421-1.967M24.988 47.53l-.42 1.966c-.05.229-1.47.473-1.734.55.264.078 1.684.322 1.733.55l.421 1.968.421-1.967c.049-.229 1.469-.473 1.733-.55-.264-.078-1.684-.322-1.733-.55l-.42-1.968M24.974 75.219l-.421 1.967c-.049.228-1.47.472-1.733.55.264.077 1.684.322 1.733.55l.42 1.967.421-1.967c.05-.228 1.47-.473 1.734-.55-.264-.078-1.685-.322-1.734-.55l-.42-1.967M24.974 82.266l-.421 1.967c-.049.228-1.47.473-1.733.55.264.078 1.684.322 1.733.55l.42 1.967.421-1.966c.05-.229 1.47-.473 1.734-.55-.264-.078-1.685-.323-1.734-.55l-.42-1.968M24.974 89.314l-.421 1.967c-.049.228-1.47.473-1.733.55.264.077 1.684.322 1.733.55l.42 1.967.421-1.967c.05-.228 1.47-.473 1.734-.55-.264-.077-1.685-.322-1.734-.55l-.42-1.967M24.974 68.674l-.421 1.967c-.049.229-1.47.473-1.733.55.264.078 1.684.322 1.733.55l.42 1.967.421-1.966c.05-.229 1.47-.474 1.734-.55-.264-.078-1.685-.322-1.734-.55l-.42-1.968M24.978 40.482l-.42 1.966c-.05.229-1.47.474-1.734.55.264.078 1.685.323 1.733.551l.421 1.967.42-1.967c.05-.228 1.47-.473 1.734-.55-.264-.077-1.684-.322-1.733-.55l-.421-1.967M24.974 33.435l-.421 1.967c-.049.229-1.47.473-1.733.55.264.078 1.684.322 1.733.551l.42 1.967.421-1.967c.05-.229 1.47-.473 1.734-.55-.264-.078-1.685-.322-1.734-.55l-.42-1.968M24.978 26.386l-.42 1.967c-.05.228-1.47.473-1.734.55.264.077 1.685.322 1.733.55l.421 1.967.42-1.966c.05-.229 1.47-.474 1.734-.55-.264-.078-1.684-.323-1.733-.551l-.421-1.967M24.974 19.34l-.421 1.967c-.049.228-1.47.473-1.733.55.264.077 1.684.322 1.733.55l.42 1.967.421-1.967c.05-.228 1.47-.473 1.734-.55-.264-.077-1.685-.322-1.734-.55l-.42-1.967"/><path style="fill:none;fill-rule:nonzero;stroke:#313390;stroke-width:.549765;stroke-miterlimit:10;stroke-dasharray:none;stroke-opacity:1" d="M7.633 7.006c-1.013 0-.646 2.8-.646 3.36v94.175c0 .764-.287 2.393.828 2.393H72.06c1.183 0 .952-1.281.952-2.145V10.695c0-.89.201-2.058 0-2.933 0-1.3-3.641-.756-4.359-.756H7.633"/></svg>