<?xml version="1.0" encoding="UTF-8" standalone="no"?>
<svg
   version="1.1"
   width="100"
   height="90.271332"
   id="svg22"
   sodipodi:docname="Chess_qlt45.svg"
   inkscape:version="1.1.2 (0a00cf5339, 2022-02-04, custom)"
   xmlns:inkscape="http://www.inkscape.org/namespaces/inkscape"
   xmlns:sodipodi="http://sodipodi.sourceforge.net/DTD/sodipodi-0.dtd"
   xmlns="http://www.w3.org/2000/svg"
   xmlns:svg="http://www.w3.org/2000/svg">
  <defs
     id="defs26" />
  <sodipodi:namedview
     id="namedview24"
     pagecolor="#ffffff"
     bordercolor="#666666"
     borderopacity="1.0"
     inkscape:pageshadow="2"
     inkscape:pageopacity="0.0"
     inkscape:pagecheckerboard="0"
     showgrid="false"
     inkscape:zoom="14"
     inkscape:cx="22.535714"
     inkscape:cy="36.642857"
     inkscape:window-width="1920"
     inkscape:window-height="1024"
     inkscape:window-x="0"
     inkscape:window-y="27"
     inkscape:window-maximized="1"
     inkscape:current-layer="svg22"
     fit-margin-top="0"
     fit-margin-left="0"
     fit-margin-right="0"
     fit-margin-bottom="0" />
  <g
     style="fill:#ffffff;stroke:#000000;stroke-width:1.5;stroke-linejoin:round"
     id="g20"
     transform="matrix(2.5974026,0,0,2.5974026,-8.4415585,-13.636364)">
    <path
       d="m 9,26 c 8.5,-1.5 21,-1.5 27,0 L 38.5,13.5 31,25 30.7,10.9 25.5,24.5 22.5,10 19.5,24.5 14.3,10.9 14,25 6.5,13.5 Z"
       id="path2" />
    <path
       d="m 9,26 c 0,2 1.5,2 2.5,4 1,1.5 1,1 0.5,3.5 -1.5,1 -1,2.5 -1,2.5 -1.5,1.5 0,2.5 0,2.5 6.5,1 16.5,1 23,0 0,0 1.5,-1 0,-2.5 0,0 0.5,-1.5 -1,-2.5 -0.5,-2.5 -0.5,-2 0.5,-3.5 1,-2 2.5,-2 2.5,-4 -8.5,-1.5 -18.5,-1.5 -27,0 z"
       id="path4" />
    <path
       d="M 11.5,30 C 15,29 30,29 33.5,30"
       style="fill:none"
       id="path6" />
    <path
       d="m 12,33.5 c 6,-1 15,-1 21,0"
       style="fill:none"
       id="path8" />
    <circle
       cx="6"
       cy="12"
       r="2"
       id="circle10" />
    <circle
       cx="14"
       cy="9"
       r="2"
       id="circle12" />
    <circle
       cx="22.5"
       cy="8"
       r="2"
       id="circle14" />
    <circle
       cx="31"
       cy="9"
       r="2"
       id="circle16" />
    <circle
       cx="39"
       cy="12"
       r="2"
       id="circle18" />
  </g>
</svg>
