
    <svg
      width="100"
      height="101.28"
      version="1.1"
      xmlns="http://www.w3.org/2000/svg"
    >
      <g
        transform="matrix(2.8808 0 0 2.8808 -14.818 -15.124)"
        fill-rule="evenodd"
        stroke="#000"
        stroke-linecap="round"
        stroke-linejoin="round"
        stroke-width="1.5"
      >
        <path
          d="M 22.5,11.63 V 6"
          fill="none"
          stroke="#000"
          stroke-linejoin="miter"
        ></path>
        <path
          d="m22.5 25s4.5-7.5 3-10.5c0 0-1-2.5-3-2.5s-3 2.5-3 2.5c-1.5 3 3 10.5 3 10.5"
          stroke-linecap="butt"
          stroke-linejoin="miter"
        ></path>
        <path
          d="m12.5 37c5.5 3.5 14.5 3.5 20 0v-7s9-4.5 6-10.5c-4-6.5-13.5-3.5-16 4v3.5-3.5c-2.5-7.5-12-10.5-16-4-3 6 6 10.5 6 10.5v7"
          stroke="#000"
        ></path>
        <path d="m20 8h5" fill="none" stroke="#000" stroke-linejoin="miter"
        ></path>
        <path
          d="m 32,29.5 c 0,0 8.5,-4 6.03,-9.65 C 34.15,14 25,18 22.5,24.5 v 2.1 -2.1 C 20,18 10.85,14 6.97,19.85 4.5,25.5 13,29.5 13,29.5"
          fill="none"
          stroke="#fff"
        ></path>
        <path
          d="m12.5 30c5.5-3 14.5-3 20 0m-20 3.5c5.5-3 14.5-3 20 0m-20 3.5c5.5-3 14.5-3 20 0"
          fill="none"
          stroke="#fff"
        ></path>
      </g>
    </svg>